
<svg width="24" height="31" viewBox="0 0 24 31" fill="none" xmlns="http://www.w3.org/2000/svg">
<mask id="path-1-outside-1_3399_113" maskUnits="userSpaceOnUse" x="0" y="6.89221" width="24" height="24" fill="black">
<rect fill="white" y="6.89221" width="24" height="24"/>
<path d="M12 30C5.93457 30 1 25.0412 1 18.9461C1 15.9664 2.16686 13.1705 4.28567 11.0735L4.30364 11.0558L4.3162 11.0339C4.32863 11.0122 4.34371 10.9921 4.36106 10.974C4.38438 10.9497 4.41097 10.9296 4.44014 10.9142L4.46223 10.9025L4.48045 10.8853C6.52825 8.9552 9.19877 7.89221 12 7.89221C18.0654 7.89221 23 12.851 23 18.9461C23 25.0412 18.0654 30 12 30ZM12.3077 29.3733L12.5265 29.3318C13.7526 29.0997 14.8756 28.0851 15.774 26.3978C15.9776 26.0155 16.1666 25.6022 16.3356 25.1695L16.3997 25.0055L16.2399 24.9328C15.0612 24.3959 13.8035 24.0894 12.5019 24.0216L12.3078 24.0115V29.3733L12.3077 29.3733ZM11.4997 24.0174C10.196 24.074 8.9339 24.3705 7.74846 24.8987L7.58729 24.9704L7.65123 25.1355C7.82335 25.58 8.01671 26.0047 8.22607 26.3978C9.12455 28.0851 10.2475 29.0997 11.4735 29.3318L11.6924 29.3733V24.009L11.4997 24.0174ZM6.84967 25.3533C6.26043 25.6883 5.69986 26.0847 5.1836 26.5316L5.02218 26.6714L5.18274 26.812C6.25599 27.7526 7.48341 28.45 8.8307 28.8848L9.01981 28.5792C8.53001 28.0709 8.0804 27.4352 7.68353 26.6897C7.47701 26.3017 7.28476 25.8834 7.1122 25.4464L7.03404 25.2485L6.84967 25.3533V25.3533ZM16.8719 25.4865C16.7037 25.9085 16.5168 26.3132 16.3166 26.6895C15.9197 27.4352 15.4701 28.0708 14.9804 28.5789L15.1694 28.8846C16.4976 28.4558 17.7098 27.7716 18.7724 26.851L18.9337 26.7112L18.7731 26.5706C18.2662 26.1266 17.7153 25.7311 17.1357 25.3948L16.9512 25.2879L16.872 25.4865H16.8719ZM18.0227 19.4365C17.9804 21.2423 17.6979 23.0119 17.2055 24.554L17.1593 24.6989L17.2916 24.7728C17.9881 25.1619 18.6457 25.6304 19.2462 26.1653L19.3792 26.2838L19.5021 26.1547C21.234 24.3352 22.2534 21.9539 22.3726 19.4497L22.3818 19.2553H18.0269L18.0227 19.4365ZM1.6274 19.4496C1.74537 21.9321 2.75032 24.2979 4.45694 26.1114L4.57903 26.2411L4.7127 26.1235C5.32157 25.5875 5.98823 25.1194 6.6941 24.7323L6.82764 24.6589L6.78154 24.5132C6.29741 22.9818 6.01925 21.2263 5.97716 19.4364L5.97291 19.2552H1.61817L1.6274 19.4497V19.4496ZM12.3077 23.3931L12.4836 23.4015C13.851 23.4664 15.1737 23.78 16.4149 24.3335L16.6048 24.4182L16.6662 24.2187C17.1097 22.7783 17.3658 21.1276 17.4069 19.4453L17.4116 19.2552H12.3076V23.3931H12.3077ZM6.59305 19.4455C6.63453 21.1382 6.88025 22.7327 7.32334 24.1846L7.3839 24.3831L7.57344 24.3003C8.82036 23.7557 10.1465 23.452 11.5149 23.3977L11.6923 23.3907V19.2554H6.58837L6.59305 19.4455ZM19.2669 11.7479C18.6624 12.2831 18.0003 12.7514 17.2989 13.1396L17.1659 13.2132L17.2121 13.3585C17.7003 14.8953 17.9806 16.6579 18.0229 18.4558L18.0271 18.6369H22.382L22.3728 18.4426C22.2543 15.9491 21.2421 13.5756 19.5228 11.7593L19.4003 11.6298L19.267 11.7479H19.2669ZM16.4208 13.5752C15.1759 14.1244 13.8515 14.4332 12.4843 14.4928L12.3077 14.5005V18.637H17.4116L17.407 18.4469C17.366 16.7711 17.1116 15.1264 16.6715 13.6904L16.6105 13.4915L16.4208 13.5752ZM7.32845 13.6909C6.88838 15.127 6.6341 16.7715 6.59305 18.4468L6.58837 18.6369H11.6923V14.5004L11.5157 14.4928C10.1475 14.4333 8.82307 14.1247 7.57916 13.5757L7.38943 13.4919L7.32845 13.6909ZM4.47737 11.7592C2.75807 13.5755 1.74592 15.9489 1.6274 18.4426L1.61817 18.6369H5.97303L5.97728 18.4558C6.01943 16.6582 6.29975 14.8957 6.78794 13.359L6.8341 13.2136L6.70111 13.1401C5.9998 12.7518 5.33776 12.2834 4.73319 11.748L4.59983 11.6298L4.47731 11.7593L4.47737 11.7592ZM12.3077 13.8821L12.5011 13.8729C13.8035 13.8106 15.0634 13.509 16.2456 12.9764L16.406 12.9041L16.342 12.7396C16.1715 12.301 15.9803 11.8821 15.7738 11.4945C14.8756 9.80713 13.7527 8.79256 12.5265 8.56041L12.3077 8.51897V13.8821ZM11.4735 8.56041C10.2475 8.79256 9.12449 9.80713 8.22607 11.4945C8.01991 11.8817 7.82864 12.3007 7.65775 12.74L7.59369 12.9046L7.75412 12.9769C8.93612 13.5093 10.1961 13.8108 11.4989 13.8729L11.6922 13.8822V8.51903L11.4734 8.56047L11.4735 8.56041ZM8.83057 9.00764C7.49325 9.43923 6.27341 10.13 5.20502 11.0608L5.04409 11.201L5.20502 11.3412C5.71654 11.7867 6.27224 12.1828 6.85675 12.5185L7.04118 12.6244L7.11983 12.4261C7.28999 11.9972 7.47959 11.5856 7.68335 11.2026C8.08028 10.4571 8.52983 9.82147 9.01956 9.31345L8.83051 9.0077L8.83057 9.00764ZM14.9803 9.31339C15.47 9.82141 15.9196 10.4571 16.3165 11.2026C16.52 11.5849 16.7096 11.9964 16.8799 12.4257L16.9585 12.6239L17.1429 12.5181C17.7275 12.1824 18.2833 11.7864 18.7948 11.3411L18.9558 11.2009L18.7949 11.0606C17.7267 10.13 16.5069 9.43923 15.1693 9.00752L14.9803 9.31326V9.31339Z"/>
</mask>
<path d="M12 30C5.93457 30 1 25.0412 1 18.9461C1 15.9664 2.16686 13.1705 4.28567 11.0735L4.30364 11.0558L4.3162 11.0339C4.32863 11.0122 4.34371 10.9921 4.36106 10.974C4.38438 10.9497 4.41097 10.9296 4.44014 10.9142L4.46223 10.9025L4.48045 10.8853C6.52825 8.9552 9.19877 7.89221 12 7.89221C18.0654 7.89221 23 12.851 23 18.9461C23 25.0412 18.0654 30 12 30ZM12.3077 29.3733L12.5265 29.3318C13.7526 29.0997 14.8756 28.0851 15.774 26.3978C15.9776 26.0155 16.1666 25.6022 16.3356 25.1695L16.3997 25.0055L16.2399 24.9328C15.0612 24.3959 13.8035 24.0894 12.5019 24.0216L12.3078 24.0115V29.3733L12.3077 29.3733ZM11.4997 24.0174C10.196 24.074 8.9339 24.3705 7.74846 24.8987L7.58729 24.9704L7.65123 25.1355C7.82335 25.58 8.01671 26.0047 8.22607 26.3978C9.12455 28.0851 10.2475 29.0997 11.4735 29.3318L11.6924 29.3733V24.009L11.4997 24.0174ZM6.84967 25.3533C6.26043 25.6883 5.69986 26.0847 5.1836 26.5316L5.02218 26.6714L5.18274 26.812C6.25599 27.7526 7.48341 28.45 8.8307 28.8848L9.01981 28.5792C8.53001 28.0709 8.0804 27.4352 7.68353 26.6897C7.47701 26.3017 7.28476 25.8834 7.1122 25.4464L7.03404 25.2485L6.84967 25.3533V25.3533ZM16.8719 25.4865C16.7037 25.9085 16.5168 26.3132 16.3166 26.6895C15.9197 27.4352 15.4701 28.0708 14.9804 28.5789L15.1694 28.8846C16.4976 28.4558 17.7098 27.7716 18.7724 26.851L18.9337 26.7112L18.7731 26.5706C18.2662 26.1266 17.7153 25.7311 17.1357 25.3948L16.9512 25.2879L16.872 25.4865H16.8719ZM18.0227 19.4365C17.9804 21.2423 17.6979 23.0119 17.2055 24.554L17.1593 24.6989L17.2916 24.7728C17.9881 25.1619 18.6457 25.6304 19.2462 26.1653L19.3792 26.2838L19.5021 26.1547C21.234 24.3352 22.2534 21.9539 22.3726 19.4497L22.3818 19.2553H18.0269L18.0227 19.4365ZM1.6274 19.4496C1.74537 21.9321 2.75032 24.2979 4.45694 26.1114L4.57903 26.2411L4.7127 26.1235C5.32157 25.5875 5.98823 25.1194 6.6941 24.7323L6.82764 24.6589L6.78154 24.5132C6.29741 22.9818 6.01925 21.2263 5.97716 19.4364L5.97291 19.2552H1.61817L1.6274 19.4497V19.4496ZM12.3077 23.3931L12.4836 23.4015C13.851 23.4664 15.1737 23.78 16.4149 24.3335L16.6048 24.4182L16.6662 24.2187C17.1097 22.7783 17.3658 21.1276 17.4069 19.4453L17.4116 19.2552H12.3076V23.3931H12.3077ZM6.59305 19.4455C6.63453 21.1382 6.88025 22.7327 7.32334 24.1846L7.3839 24.3831L7.57344 24.3003C8.82036 23.7557 10.1465 23.452 11.5149 23.3977L11.6923 23.3907V19.2554H6.58837L6.59305 19.4455ZM19.2669 11.7479C18.6624 12.2831 18.0003 12.7514 17.2989 13.1396L17.1659 13.2132L17.2121 13.3585C17.7003 14.8953 17.9806 16.6579 18.0229 18.4558L18.0271 18.6369H22.382L22.3728 18.4426C22.2543 15.9491 21.2421 13.5756 19.5228 11.7593L19.4003 11.6298L19.267 11.7479H19.2669ZM16.4208 13.5752C15.1759 14.1244 13.8515 14.4332 12.4843 14.4928L12.3077 14.5005V18.637H17.4116L17.407 18.4469C17.366 16.7711 17.1116 15.1264 16.6715 13.6904L16.6105 13.4915L16.4208 13.5752ZM7.32845 13.6909C6.88838 15.127 6.6341 16.7715 6.59305 18.4468L6.58837 18.6369H11.6923V14.5004L11.5157 14.4928C10.1475 14.4333 8.82307 14.1247 7.57916 13.5757L7.38943 13.4919L7.32845 13.6909ZM4.47737 11.7592C2.75807 13.5755 1.74592 15.9489 1.6274 18.4426L1.61817 18.6369H5.97303L5.97728 18.4558C6.01943 16.6582 6.29975 14.8957 6.78794 13.359L6.8341 13.2136L6.70111 13.1401C5.9998 12.7518 5.33776 12.2834 4.73319 11.748L4.59983 11.6298L4.47731 11.7593L4.47737 11.7592ZM12.3077 13.8821L12.5011 13.8729C13.8035 13.8106 15.0634 13.509 16.2456 12.9764L16.406 12.9041L16.342 12.7396C16.1715 12.301 15.9803 11.8821 15.7738 11.4945C14.8756 9.80713 13.7527 8.79256 12.5265 8.56041L12.3077 8.51897V13.8821ZM11.4735 8.56041C10.2475 8.79256 9.12449 9.80713 8.22607 11.4945C8.01991 11.8817 7.82864 12.3007 7.65775 12.74L7.59369 12.9046L7.75412 12.9769C8.93612 13.5093 10.1961 13.8108 11.4989 13.8729L11.6922 13.8822V8.51903L11.4734 8.56047L11.4735 8.56041ZM8.83057 9.00764C7.49325 9.43923 6.27341 10.13 5.20502 11.0608L5.04409 11.201L5.20502 11.3412C5.71654 11.7867 6.27224 12.1828 6.85675 12.5185L7.04118 12.6244L7.11983 12.4261C7.28999 11.9972 7.47959 11.5856 7.68335 11.2026C8.08028 10.4571 8.52983 9.82147 9.01956 9.31345L8.83051 9.0077L8.83057 9.00764ZM14.9803 9.31339C15.47 9.82141 15.9196 10.4571 16.3165 11.2026C16.52 11.5849 16.7096 11.9964 16.8799 12.4257L16.9585 12.6239L17.1429 12.5181C17.7275 12.1824 18.2833 11.7864 18.7948 11.3411L18.9558 11.2009L18.7949 11.0606C17.7267 10.13 16.5069 9.43923 15.1693 9.00752L14.9803 9.31326V9.31339Z" fill="black"/>
<path d="M12 30C5.93457 30 1 25.0412 1 18.9461C1 15.9664 2.16686 13.1705 4.28567 11.0735L4.30364 11.0558L4.3162 11.0339C4.32863 11.0122 4.34371 10.9921 4.36106 10.974C4.38438 10.9497 4.41097 10.9296 4.44014 10.9142L4.46223 10.9025L4.48045 10.8853C6.52825 8.9552 9.19877 7.89221 12 7.89221C18.0654 7.89221 23 12.851 23 18.9461C23 25.0412 18.0654 30 12 30ZM12.3077 29.3733L12.5265 29.3318C13.7526 29.0997 14.8756 28.0851 15.774 26.3978C15.9776 26.0155 16.1666 25.6022 16.3356 25.1695L16.3997 25.0055L16.2399 24.9328C15.0612 24.3959 13.8035 24.0894 12.5019 24.0216L12.3078 24.0115V29.3733L12.3077 29.3733ZM11.4997 24.0174C10.196 24.074 8.9339 24.3705 7.74846 24.8987L7.58729 24.9704L7.65123 25.1355C7.82335 25.58 8.01671 26.0047 8.22607 26.3978C9.12455 28.0851 10.2475 29.0997 11.4735 29.3318L11.6924 29.3733V24.009L11.4997 24.0174ZM6.84967 25.3533C6.26043 25.6883 5.69986 26.0847 5.1836 26.5316L5.02218 26.6714L5.18274 26.812C6.25599 27.7526 7.48341 28.45 8.8307 28.8848L9.01981 28.5792C8.53001 28.0709 8.0804 27.4352 7.68353 26.6897C7.47701 26.3017 7.28476 25.8834 7.1122 25.4464L7.03404 25.2485L6.84967 25.3533V25.3533ZM16.8719 25.4865C16.7037 25.9085 16.5168 26.3132 16.3166 26.6895C15.9197 27.4352 15.4701 28.0708 14.9804 28.5789L15.1694 28.8846C16.4976 28.4558 17.7098 27.7716 18.7724 26.851L18.9337 26.7112L18.7731 26.5706C18.2662 26.1266 17.7153 25.7311 17.1357 25.3948L16.9512 25.2879L16.872 25.4865H16.8719ZM18.0227 19.4365C17.9804 21.2423 17.6979 23.0119 17.2055 24.554L17.1593 24.6989L17.2916 24.7728C17.9881 25.1619 18.6457 25.6304 19.2462 26.1653L19.3792 26.2838L19.5021 26.1547C21.234 24.3352 22.2534 21.9539 22.3726 19.4497L22.3818 19.2553H18.0269L18.0227 19.4365ZM1.6274 19.4496C1.74537 21.9321 2.75032 24.2979 4.45694 26.1114L4.57903 26.2411L4.7127 26.1235C5.32157 25.5875 5.98823 25.1194 6.6941 24.7323L6.82764 24.6589L6.78154 24.5132C6.29741 22.9818 6.01925 21.2263 5.97716 19.4364L5.97291 19.2552H1.61817L1.6274 19.4497V19.4496ZM12.3077 23.3931L12.4836 23.4015C13.851 23.4664 15.1737 23.78 16.4149 24.3335L16.6048 24.4182L16.6662 24.2187C17.1097 22.7783 17.3658 21.1276 17.4069 19.4453L17.4116 19.2552H12.3076V23.3931H12.3077ZM6.59305 19.4455C6.63453 21.1382 6.88025 22.7327 7.32334 24.1846L7.3839 24.3831L7.57344 24.3003C8.82036 23.7557 10.1465 23.452 11.5149 23.3977L11.6923 23.3907V19.2554H6.58837L6.59305 19.4455ZM19.2669 11.7479C18.6624 12.2831 18.0003 12.7514 17.2989 13.1396L17.1659 13.2132L17.2121 13.3585C17.7003 14.8953 17.9806 16.6579 18.0229 18.4558L18.0271 18.6369H22.382L22.3728 18.4426C22.2543 15.9491 21.2421 13.5756 19.5228 11.7593L19.4003 11.6298L19.267 11.7479H19.2669ZM16.4208 13.5752C15.1759 14.1244 13.8515 14.4332 12.4843 14.4928L12.3077 14.5005V18.637H17.4116L17.407 18.4469C17.366 16.7711 17.1116 15.1264 16.6715 13.6904L16.6105 13.4915L16.4208 13.5752ZM7.32845 13.6909C6.88838 15.127 6.6341 16.7715 6.59305 18.4468L6.58837 18.6369H11.6923V14.5004L11.5157 14.4928C10.1475 14.4333 8.82307 14.1247 7.57916 13.5757L7.38943 13.4919L7.32845 13.6909ZM4.47737 11.7592C2.75807 13.5755 1.74592 15.9489 1.6274 18.4426L1.61817 18.6369H5.97303L5.97728 18.4558C6.01943 16.6582 6.29975 14.8957 6.78794 13.359L6.8341 13.2136L6.70111 13.1401C5.9998 12.7518 5.33776 12.2834 4.73319 11.748L4.59983 11.6298L4.47731 11.7593L4.47737 11.7592ZM12.3077 13.8821L12.5011 13.8729C13.8035 13.8106 15.0634 13.509 16.2456 12.9764L16.406 12.9041L16.342 12.7396C16.1715 12.301 15.9803 11.8821 15.7738 11.4945C14.8756 9.80713 13.7527 8.79256 12.5265 8.56041L12.3077 8.51897V13.8821ZM11.4735 8.56041C10.2475 8.79256 9.12449 9.80713 8.22607 11.4945C8.01991 11.8817 7.82864 12.3007 7.65775 12.74L7.59369 12.9046L7.75412 12.9769C8.93612 13.5093 10.1961 13.8108 11.4989 13.8729L11.6922 13.8822V8.51903L11.4734 8.56047L11.4735 8.56041ZM8.83057 9.00764C7.49325 9.43923 6.27341 10.13 5.20502 11.0608L5.04409 11.201L5.20502 11.3412C5.71654 11.7867 6.27224 12.1828 6.85675 12.5185L7.04118 12.6244L7.11983 12.4261C7.28999 11.9972 7.47959 11.5856 7.68335 11.2026C8.08028 10.4571 8.52983 9.82147 9.01956 9.31345L8.83051 9.0077L8.83057 9.00764ZM14.9803 9.31339C15.47 9.82141 15.9196 10.4571 16.3165 11.2026C16.52 11.5849 16.7096 11.9964 16.8799 12.4257L16.9585 12.6239L17.1429 12.5181C17.7275 12.1824 18.2833 11.7864 18.7948 11.3411L18.9558 11.2009L18.7949 11.0606C17.7267 10.13 16.5069 9.43923 15.1693 9.00752L14.9803 9.31326V9.31339Z" stroke="black" stroke-width="0.4" mask="url(#path-1-outside-1_3399_113)"/>
<path d="M12.4629 8.31519V5.02442H16.2479C16.437 5.02442 16.6038 4.90342 16.6782 4.72563L16.6782 4.72555C16.7521 4.54878 16.7254 4.33954 16.6073 4.19051C16.6073 4.19049 16.6073 4.19047 16.6073 4.19046L15.525 2.8231L16.6076 1.45514L16.6076 1.45508C16.7255 1.30588 16.752 1.09674 16.6781 0.919918L16.6781 0.919841C16.6037 0.742289 16.437 0.621313 16.2478 0.621313H11.991C11.7228 0.621313 11.5194 0.856725 11.5194 1.12744V8.31511C11.5194 8.57657 11.7091 8.80528 11.9641 8.82043L11.9657 8.82131H11.9912C12.2595 8.82131 12.4629 8.58581 12.4629 8.31519ZM14.5464 3.15089L15.2281 4.01209H12.4627V1.63364H15.2283L14.5464 2.49541L14.5464 2.49542C14.3978 2.68334 14.3978 2.96313 14.5464 3.15089L14.5464 3.15089Z" fill="black" stroke="black" stroke-width="0.2"/>
</svg>
