
<svg width="27" height="26" viewBox="0 0 27 26" fill="none" xmlns="http://www.w3.org/2000/svg">
<path fill-rule="evenodd" clip-rule="evenodd" d="M5.41699 23.8332H20.5837C22.3786 23.8332 23.8337 22.3781 23.8337 20.5832V16.2498H19.5003V3.24984C19.5003 2.65153 19.0153 2.1665 18.417 2.1665H3.25033C2.65202 2.1665 2.16699 2.65153 2.16699 3.24984V20.5832C2.16699 22.3781 3.62207 23.8332 5.41699 23.8332ZM19.5004 20.5832V18.4165H21.6671V20.5832C21.6671 21.1815 21.1821 21.6665 20.5838 21.6665C19.9855 21.6665 19.5004 21.1815 19.5004 20.5832ZM17.3338 21.6665V4.33321H4.33384V20.5832C4.33384 21.1815 4.81886 21.6665 5.41717 21.6665H17.3338ZM15.1671 7.58321H6.50043V9.74988H15.1671V7.58321ZM6.50043 11.9165H15.1671V14.0832H6.50043V11.9165ZM11.9171 16.2499H6.50043V18.4165H11.9171V16.2499Z" fill="#2E3742"/>
<path d="M24.7483 6.36443L25.4554 5.65732L24.7483 4.95022L23.2165 3.41838L22.5094 2.71127L21.8023 3.41838L13.3761 11.8445L13.0838 12.1369L13.0832 12.5502L13.0811 14.0799L13.0796 15.0799L14.0796 15.0813L15.6136 15.0835L16.0287 15.0841L16.3222 14.7906L24.7483 6.36443Z" fill="#E02020" stroke="#F7FAFE" stroke-width="2"/>
</svg>
