<svg width="40" height="41" viewBox="0 0 40 41" fill="none" xmlns="http://www.w3.org/2000/svg">
<mask id="mask0_1067_208835" style="mask-type:luminance" maskUnits="userSpaceOnUse" x="8" y="8" width="25" height="25">
<path fill-rule="evenodd" clip-rule="evenodd" d="M8 8.5H32.0601V32.5597H8V8.5Z" fill="white"/>
</mask>
<g mask="url(#mask0_1067_208835)">
<path fill-rule="evenodd" clip-rule="evenodd" d="M30.6502 30.4451C30.6502 30.8337 30.3342 31.1498 29.9455 31.1498H21.3647L23.4915 26.4601C23.5677 26.2919 23.5713 26.1057 23.5186 25.9461L20.0779 15.5956H29.9455C30.3342 15.5956 30.6502 15.9121 30.6502 16.3003V30.4451ZM21.7556 26.8736L20.3741 29.9211L19.3673 26.8736H21.7556ZM10.1147 25.4641C9.72599 25.4641 9.40992 25.1481 9.40992 24.7594V10.6147C9.40992 10.226 9.72599 9.90947 10.1147 9.90947H16.7016L21.8724 25.4641H10.1147ZM29.9455 14.1857H19.609L17.8794 8.98245C17.7833 8.69433 17.5141 8.5 17.2102 8.5H10.1147C8.94866 8.5 8 9.44866 8 10.6147V24.7594C8 25.9254 8.94866 26.8736 10.1147 26.8736H17.8825L19.5981 32.0637C19.6928 32.3676 19.9737 32.5597 20.2713 32.5597H20.2763H29.9455C31.111 32.5597 32.0602 31.6115 32.0602 30.4451V16.3003C32.0602 15.1343 31.111 14.1857 29.9455 14.1857Z" fill="black"/>
</g>
<path fill-rule="evenodd" clip-rule="evenodd" d="M17.2104 17.0054H15.0958C14.7066 17.0054 14.391 17.321 14.391 17.7102C14.391 18.0997 14.7066 18.4149 15.0958 18.4149H16.3844C16.0931 19.2355 15.3099 19.8248 14.391 19.8248C13.225 19.8248 12.2764 18.8761 12.2764 17.7102C12.2764 16.5442 13.225 15.596 14.391 15.596C14.956 15.596 15.4867 15.8155 15.8862 16.215C16.1612 16.4901 16.608 16.4901 16.8831 16.215C17.1581 15.9395 17.1581 15.4932 16.8831 15.2181C16.2171 14.5526 15.332 14.186 14.391 14.186C12.4477 14.186 10.8665 15.7668 10.8665 17.7102C10.8665 19.6539 12.4477 21.2347 14.391 21.2347C16.3343 21.2347 17.9152 19.6539 17.9152 17.7102C17.9152 17.321 17.5995 17.0054 17.2104 17.0054Z" fill="black"/>
<path fill-rule="evenodd" clip-rule="evenodd" d="M28.4887 19.8251H26.3741V19.1203C26.3741 18.7308 26.058 18.4152 25.6689 18.4152C25.2798 18.4152 24.9642 18.7308 24.9642 19.1203V19.8251H22.8495C22.4604 19.8251 22.1448 20.1407 22.1448 20.5298C22.1448 20.9194 22.4604 21.235 22.8495 21.235H26.9445C26.7204 21.901 26.2388 22.6914 25.6788 23.4516C25.558 23.2888 25.4385 23.122 25.3235 22.9529C25.1048 22.6314 24.6661 22.5475 24.3446 22.7662C24.0227 22.9858 23.9393 23.4236 24.1584 23.7455C24.3559 24.0368 24.5633 24.32 24.7698 24.5878C24.4177 24.9967 24.0701 25.3665 23.7653 25.6659C23.4875 25.9386 23.4835 26.385 23.7562 26.6628C24.0277 26.9392 24.4741 26.9459 24.7531 26.6722C24.7775 26.6483 25.1617 26.2696 25.6752 25.6884C26.1761 26.2615 26.5513 26.6384 26.5806 26.6677C26.8556 26.9428 27.3016 26.9428 27.5775 26.6677C27.8525 26.3922 27.8525 25.9459 27.5775 25.6708C27.5703 25.6631 27.1383 25.2294 26.5878 24.5873C27.5856 23.2974 28.1943 22.1737 28.4044 21.235H28.4887C28.8778 21.235 29.1935 20.9194 29.1935 20.5298C29.1935 20.1407 28.8778 19.8251 28.4887 19.8251Z" fill="black"/>
</svg>
